solid OpenSCAD_Model
  facet normal -1 -0 -0
    outer loop
      vertex 0 0 0
      vertex 0 0 0.75
      vertex 0 110 0
    endloop
  endfacet
  facet normal -1 0 0
    outer loop
      vertex 0 110 0
      vertex 0 0 0.75
      vertex 0 110 0.75
    endloop
  endfacet
  facet normal 0 -1 0
    outer loop
      vertex 0 0 0.75
      vertex 0 0 0
      vertex 115 0 0
    endloop
  endfacet
  facet normal 0 -1 0
    outer loop
      vertex 115 0 0.75
      vertex 0 0 0.75
      vertex 115 0 0
    endloop
  endfacet
  facet normal -0 -0 -1
    outer loop
      vertex 0 0 0
      vertex 0 110 0
      vertex 115 0 0
    endloop
  endfacet
  facet normal 0 0 -1
    outer loop
      vertex 115 0 0
      vertex 0 110 0
      vertex 0.5 110 0
    endloop
  endfacet
  facet normal 0 0 -1
    outer loop
      vertex 115 0 0
      vertex 0.5 110 0
      vertex 1.74559 121.851 0
    endloop
  endfacet
  facet normal 0 0 -1
    outer loop
      vertex 115 0 0
      vertex 1.74559 121.851 0
      vertex 5.42791 133.184 0
    endloop
  endfacet
  facet normal 0 0 -1
    outer loop
      vertex 115 0 0
      vertex 5.42791 133.184 0
      vertex 11.386 143.504 0
    endloop
  endfacet
  facet normal 0 0 -1
    outer loop
      vertex 115 0 0
      vertex 11.386 143.504 0
      vertex 19.3596 152.359 0
    endloop
  endfacet
  facet normal 0 0 -1
    outer loop
      vertex 115 0 0
      vertex 19.3596 152.359 0
      vertex 29 159.363 0
    endloop
  endfacet
  facet normal 0 0 -1
    outer loop
      vertex 115 0 0
      vertex 29 159.363 0
      vertex 39.886 164.21 0
    endloop
  endfacet
  facet normal 0 0 -1
    outer loop
      vertex 115 0 0
      vertex 39.886 164.21 0
      vertex 51.5419 166.688 0
    endloop
  endfacet
  facet normal 0 0 -1
    outer loop
      vertex 115 0 0
      vertex 51.5419 166.688 0
      vertex 63.4581 166.688 0
    endloop
  endfacet
  facet normal 0 0 -1
    outer loop
      vertex 115 0 0
      vertex 63.4581 166.688 0
      vertex 75.114 164.21 0
    endloop
  endfacet
  facet normal 0 0 -1
    outer loop
      vertex 115 0 0
      vertex 75.114 164.21 0
      vertex 86 159.363 0
    endloop
  endfacet
  facet normal 0 0 -1
    outer loop
      vertex 115 0 0
      vertex 86 159.363 0
      vertex 95.6404 152.359 0
    endloop
  endfacet
  facet normal 0 0 -1
    outer loop
      vertex 115 0 0
      vertex 95.6404 152.359 0
      vertex 103.614 143.504 0
    endloop
  endfacet
  facet normal 0 0 -1
    outer loop
      vertex 115 0 0
      vertex 103.614 143.504 0
      vertex 109.572 133.184 0
    endloop
  endfacet
  facet normal 0 0 -1
    outer loop
      vertex 115 0 0
      vertex 109.572 133.184 0
      vertex 113.254 121.851 0
    endloop
  endfacet
  facet normal 0 0 -1
    outer loop
      vertex 115 0 0
      vertex 113.254 121.851 0
      vertex 114.5 110 0
    endloop
  endfacet
  facet normal 0 0 -1
    outer loop
      vertex 115 0 0
      vertex 114.5 110 0
      vertex 115 110 0
    endloop
  endfacet
  facet normal 0 1 0
    outer loop
      vertex 0 110 0
      vertex 0 110 0.75
      vertex 0.5 110 0
    endloop
  endfacet
  facet normal 0 1 0
    outer loop
      vertex 0.5 110 0
      vertex 0 110 0.75
      vertex 0.5 110 0.75
    endloop
  endfacet
  facet normal 0 -0 1
    outer loop
      vertex 0 110 0.75
      vertex 0 0 0.75
      vertex 115 0 0.75
    endloop
  endfacet
  facet normal 0 -0 1
    outer loop
      vertex 0.5 110 0.75
      vertex 0 110 0.75
      vertex 115 0 0.75
    endloop
  endfacet
  facet normal 0 -0 1
    outer loop
      vertex 114.5 110 0.75
      vertex 0.5 110 0.75
      vertex 115 0 0.75
    endloop
  endfacet
  facet normal 0 0 1
    outer loop
      vertex 115 110 0.75
      vertex 114.5 110 0.75
      vertex 115 0 0.75
    endloop
  endfacet
  facet normal 0 -0 1
    outer loop
      vertex 113.254 121.851 0.75
      vertex 0.5 110 0.75
      vertex 114.5 110 0.75
    endloop
  endfacet
  facet normal 0 0 1
    outer loop
      vertex 1.74559 121.851 0.75
      vertex 11.386 143.504 0.75
      vertex 5.42791 133.184 0.75
    endloop
  endfacet
  facet normal 0 0 1
    outer loop
      vertex 1.74559 121.851 0.75
      vertex 19.3596 152.359 0.75
      vertex 11.386 143.504 0.75
    endloop
  endfacet
  facet normal 0 0 1
    outer loop
      vertex 1.74559 121.851 0.75
      vertex 29 159.363 0.75
      vertex 19.3596 152.359 0.75
    endloop
  endfacet
  facet normal 0 0 1
    outer loop
      vertex 1.74559 121.851 0.75
      vertex 39.886 164.21 0.75
      vertex 29 159.363 0.75
    endloop
  endfacet
  facet normal 0 0 1
    outer loop
      vertex 1.74559 121.851 0.75
      vertex 51.5419 166.688 0.75
      vertex 39.886 164.21 0.75
    endloop
  endfacet
  facet normal 0 0 1
    outer loop
      vertex 1.74559 121.851 0.75
      vertex 63.4581 166.688 0.75
      vertex 51.5419 166.688 0.75
    endloop
  endfacet
  facet normal 0 0 1
    outer loop
      vertex 1.74559 121.851 0.75
      vertex 75.114 164.21 0.75
      vertex 63.4581 166.688 0.75
    endloop
  endfacet
  facet normal 0 0 1
    outer loop
      vertex 1.74559 121.851 0.75
      vertex 86 159.363 0.75
      vertex 75.114 164.21 0.75
    endloop
  endfacet
  facet normal 0 0 1
    outer loop
      vertex 1.74559 121.851 0.75
      vertex 95.6404 152.359 0.75
      vertex 86 159.363 0.75
    endloop
  endfacet
  facet normal 0 0 1
    outer loop
      vertex 1.74559 121.851 0.75
      vertex 103.614 143.504 0.75
      vertex 95.6404 152.359 0.75
    endloop
  endfacet
  facet normal 0 0 1
    outer loop
      vertex 1.74559 121.851 0.75
      vertex 109.572 133.184 0.75
      vertex 103.614 143.504 0.75
    endloop
  endfacet
  facet normal 0 0 1
    outer loop
      vertex 1.74559 121.851 0.75
      vertex 113.254 121.851 0.75
      vertex 109.572 133.184 0.75
    endloop
  endfacet
  facet normal 0 -0 1
    outer loop
      vertex 1.74559 121.851 0.75
      vertex 0.5 110 0.75
      vertex 113.254 121.851 0.75
    endloop
  endfacet
  facet normal 1 0 -0
    outer loop
      vertex 115 0 0.75
      vertex 115 0 0
      vertex 115 110 0
    endloop
  endfacet
  facet normal 1 0 0
    outer loop
      vertex 115 110 0.75
      vertex 115 0 0.75
      vertex 115 110 0
    endloop
  endfacet
  facet normal 0 1 0
    outer loop
      vertex 114.5 110 0
      vertex 114.5 110 0.75
      vertex 115 110 0
    endloop
  endfacet
  facet normal 0 1 0
    outer loop
      vertex 115 110 0
      vertex 114.5 110 0.75
      vertex 115 110 0.75
    endloop
  endfacet
  facet normal 0.994522 0.104528 0
    outer loop
      vertex 114.5 110 0
      vertex 113.254 121.851 0
      vertex 113.254 121.851 0.75
    endloop
  endfacet
  facet normal 0.994522 0.104528 -0
    outer loop
      vertex 114.5 110 0.75
      vertex 114.5 110 0
      vertex 113.254 121.851 0.75
    endloop
  endfacet
  facet normal 0.951057 0.309017 0
    outer loop
      vertex 113.254 121.851 0
      vertex 109.572 133.184 0
      vertex 109.572 133.184 0.75
    endloop
  endfacet
  facet normal 0.951057 0.309017 -0
    outer loop
      vertex 113.254 121.851 0.75
      vertex 113.254 121.851 0
      vertex 109.572 133.184 0.75
    endloop
  endfacet
  facet normal 0.866025 0.5 0
    outer loop
      vertex 109.572 133.184 0
      vertex 103.614 143.504 0
      vertex 103.614 143.504 0.75
    endloop
  endfacet
  facet normal 0.866025 0.5 -0
    outer loop
      vertex 109.572 133.184 0.75
      vertex 109.572 133.184 0
      vertex 103.614 143.504 0.75
    endloop
  endfacet
  facet normal 0.743145 0.669131 0
    outer loop
      vertex 103.614 143.504 0
      vertex 95.6404 152.359 0
      vertex 95.6404 152.359 0.75
    endloop
  endfacet
  facet normal 0.743145 0.669131 -0
    outer loop
      vertex 103.614 143.504 0.75
      vertex 103.614 143.504 0
      vertex 95.6404 152.359 0.75
    endloop
  endfacet
  facet normal 0.587785 0.809017 0
    outer loop
      vertex 86 159.363 0
      vertex 86 159.363 0.75
      vertex 95.6404 152.359 0
    endloop
  endfacet
  facet normal 0.587785 0.809017 0
    outer loop
      vertex 95.6404 152.359 0
      vertex 86 159.363 0.75
      vertex 95.6404 152.359 0.75
    endloop
  endfacet
  facet normal 0.406737 0.913545 0
    outer loop
      vertex 75.114 164.21 0
      vertex 75.114 164.21 0.75
      vertex 86 159.363 0
    endloop
  endfacet
  facet normal 0.406737 0.913545 0
    outer loop
      vertex 86 159.363 0
      vertex 75.114 164.21 0.75
      vertex 86 159.363 0.75
    endloop
  endfacet
  facet normal 0.207912 0.978148 0
    outer loop
      vertex 63.4581 166.688 0
      vertex 63.4581 166.688 0.75
      vertex 75.114 164.21 0
    endloop
  endfacet
  facet normal 0.207912 0.978148 0
    outer loop
      vertex 75.114 164.21 0
      vertex 63.4581 166.688 0.75
      vertex 75.114 164.21 0.75
    endloop
  endfacet
  facet normal 0 1 0
    outer loop
      vertex 51.5419 166.688 0
      vertex 51.5419 166.688 0.75
      vertex 63.4581 166.688 0
    endloop
  endfacet
  facet normal 0 1 0
    outer loop
      vertex 63.4581 166.688 0
      vertex 51.5419 166.688 0.75
      vertex 63.4581 166.688 0.75
    endloop
  endfacet
  facet normal -0.207912 0.978148 0
    outer loop
      vertex 39.886 164.21 0
      vertex 39.886 164.21 0.75
      vertex 51.5419 166.688 0
    endloop
  endfacet
  facet normal -0.207912 0.978148 0
    outer loop
      vertex 51.5419 166.688 0
      vertex 39.886 164.21 0.75
      vertex 51.5419 166.688 0.75
    endloop
  endfacet
  facet normal -0.406737 0.913545 0
    outer loop
      vertex 29 159.363 0
      vertex 29 159.363 0.75
      vertex 39.886 164.21 0
    endloop
  endfacet
  facet normal -0.406737 0.913545 0
    outer loop
      vertex 39.886 164.21 0
      vertex 29 159.363 0.75
      vertex 39.886 164.21 0.75
    endloop
  endfacet
  facet normal -0.587785 0.809017 0
    outer loop
      vertex 19.3596 152.359 0
      vertex 19.3596 152.359 0.75
      vertex 29 159.363 0
    endloop
  endfacet
  facet normal -0.587785 0.809017 0
    outer loop
      vertex 29 159.363 0
      vertex 19.3596 152.359 0.75
      vertex 29 159.363 0.75
    endloop
  endfacet
  facet normal -0.743145 0.669131 0
    outer loop
      vertex 11.386 143.504 0
      vertex 11.386 143.504 0.75
      vertex 19.3596 152.359 0
    endloop
  endfacet
  facet normal -0.743145 0.669131 0
    outer loop
      vertex 19.3596 152.359 0
      vertex 11.386 143.504 0.75
      vertex 19.3596 152.359 0.75
    endloop
  endfacet
  facet normal -0.866025 0.5 0
    outer loop
      vertex 5.42791 133.184 0
      vertex 5.42791 133.184 0.75
      vertex 11.386 143.504 0
    endloop
  endfacet
  facet normal -0.866025 0.5 0
    outer loop
      vertex 11.386 143.504 0
      vertex 5.42791 133.184 0.75
      vertex 11.386 143.504 0.75
    endloop
  endfacet
  facet normal -0.951057 0.309017 0
    outer loop
      vertex 1.74559 121.851 0
      vertex 1.74559 121.851 0.75
      vertex 5.42791 133.184 0
    endloop
  endfacet
  facet normal -0.951057 0.309017 0
    outer loop
      vertex 5.42791 133.184 0
      vertex 1.74559 121.851 0.75
      vertex 5.42791 133.184 0.75
    endloop
  endfacet
  facet normal -0.994522 0.104528 0
    outer loop
      vertex 0.5 110 0
      vertex 0.5 110 0.75
      vertex 1.74559 121.851 0
    endloop
  endfacet
  facet normal -0.994522 0.104528 0
    outer loop
      vertex 1.74559 121.851 0
      vertex 0.5 110 0.75
      vertex 1.74559 121.851 0.75
    endloop
  endfacet
endsolid OpenSCAD_Model
