solid OpenSCAD_Model
  facet normal -1 -0 -0
    outer loop
      vertex -4 -1 0
      vertex -4 -1 9
      vertex -4 0 0
    endloop
  endfacet
  facet normal -1 0 -0
    outer loop
      vertex -4 0 8
      vertex -4 -1 9
      vertex -4 2 9
    endloop
  endfacet
  facet normal -1 0 0
    outer loop
      vertex -4 0 0
      vertex -4 -1 9
      vertex -4 0 8
    endloop
  endfacet
  facet normal -1 -0 0
    outer loop
      vertex -4 0 8
      vertex -4 2 9
      vertex -4 2 8
    endloop
  endfacet
  facet normal 0 -1 0
    outer loop
      vertex -4 -1 9
      vertex -4 -1 0
      vertex 11 -1 0
    endloop
  endfacet
  facet normal 0 -1 0
    outer loop
      vertex 11 -1 9
      vertex -4 -1 9
      vertex 11 -1 0
    endloop
  endfacet
  facet normal -0 -0 -1
    outer loop
      vertex -4 -1 0
      vertex -4 0 0
      vertex 11 -1 0
    endloop
  endfacet
  facet normal 0 0 -1
    outer loop
      vertex 11 -1 0
      vertex -4 0 0
      vertex 0 0 0
    endloop
  endfacet
  facet normal 0 0 -1
    outer loop
      vertex 7 0 0
      vertex 0 0 0
      vertex 0 8.1 0
    endloop
  endfacet
  facet normal 0 0 -1
    outer loop
      vertex 0 8.1 0
      vertex -4 8.1 0
      vertex -4 9.1 0
    endloop
  endfacet
  facet normal 0 -0 -1
    outer loop
      vertex 0 8.1 0
      vertex -4 9.1 0
      vertex 11 9.1 0
    endloop
  endfacet
  facet normal -0 0 -1
    outer loop
      vertex 7 8.1 0
      vertex 11 9.1 0
      vertex 11 8.1 0
    endloop
  endfacet
  facet normal -0 0 -1
    outer loop
      vertex 0 8.1 0
      vertex 11 9.1 0
      vertex 7 8.1 0
    endloop
  endfacet
  facet normal 0 0 -1
    outer loop
      vertex 11 -1 0
      vertex 0 0 0
      vertex 7 0 0
    endloop
  endfacet
  facet normal 0 0 -1
    outer loop
      vertex 11 0 0
      vertex 11 -1 0
      vertex 7 0 0
    endloop
  endfacet
  facet normal 0 0 -1
    outer loop
      vertex 7 0 0
      vertex 0 8.1 0
      vertex 7 8.1 0
    endloop
  endfacet
  facet normal 0 1 0
    outer loop
      vertex -4 0 0
      vertex -4 0 8
      vertex 0 0 0
    endloop
  endfacet
  facet normal 0 1 0
    outer loop
      vertex 0 0 0
      vertex -4 0 8
      vertex -2 0 8
    endloop
  endfacet
  facet normal 0 1 0
    outer loop
      vertex 0 0 0
      vertex -2 0 8
      vertex -2 0 9
    endloop
  endfacet
  facet normal 0 1 0
    outer loop
      vertex 4 0 7
      vertex -2 0 9
      vertex 7 0 7
    endloop
  endfacet
  facet normal 0 1 0
    outer loop
      vertex 7 0 7
      vertex 9 0 9
      vertex 9 0 8
    endloop
  endfacet
  facet normal 0 1 0
    outer loop
      vertex 7 0 0
      vertex 11 0 8
      vertex 11 0 0
    endloop
  endfacet
  facet normal 0 1 0
    outer loop
      vertex -2 0 9
      vertex 9 0 9
      vertex 7 0 7
    endloop
  endfacet
  facet normal 0 1 0
    outer loop
      vertex 0 0 2
      vertex -2 0 9
      vertex 4 0 7
    endloop
  endfacet
  facet normal 0 1 0
    outer loop
      vertex 0 0 0
      vertex -2 0 9
      vertex 0 0 2
    endloop
  endfacet
  facet normal 0 1 0
    outer loop
      vertex 7 0 7
      vertex 9 0 8
      vertex 11 0 8
    endloop
  endfacet
  facet normal 0 1 -0
    outer loop
      vertex 7 0 7
      vertex 11 0 8
      vertex 7 0 0
    endloop
  endfacet
  facet normal 0 1 0
    outer loop
      vertex 0 0 2
      vertex 4 0 7
      vertex 4 0 2
    endloop
  endfacet
  facet normal -0 -0 -1
    outer loop
      vertex -4 0 8
      vertex -4 2 8
      vertex -2 0 8
    endloop
  endfacet
  facet normal 0 0 -1
    outer loop
      vertex -2 0 8
      vertex -4 2 8
      vertex -2 2 8
    endloop
  endfacet
  facet normal 0 1 0
    outer loop
      vertex -4 2 8
      vertex -4 2 9
      vertex -2 2 8
    endloop
  endfacet
  facet normal 0 1 0
    outer loop
      vertex -2 2 8
      vertex -4 2 9
      vertex -2 2 9
    endloop
  endfacet
  facet normal 0 -0 1
    outer loop
      vertex -2 0 9
      vertex -4 -1 9
      vertex 11 -1 9
    endloop
  endfacet
  facet normal 0 0 1
    outer loop
      vertex -2 0 9
      vertex -2 2 9
      vertex -4 2 9
    endloop
  endfacet
  facet normal 0 0 1
    outer loop
      vertex 11 2 9
      vertex 9 2 9
      vertex 11 -1 9
    endloop
  endfacet
  facet normal 0 -0 1
    outer loop
      vertex 9 2 9
      vertex 9 0 9
      vertex 11 -1 9
    endloop
  endfacet
  facet normal 0 -0 1
    outer loop
      vertex -4 2 9
      vertex -4 -1 9
      vertex -2 0 9
    endloop
  endfacet
  facet normal 0 -0 1
    outer loop
      vertex 9 0 9
      vertex -2 0 9
      vertex 11 -1 9
    endloop
  endfacet
  facet normal 1 0 -0
    outer loop
      vertex 11 -1 9
      vertex 11 -1 0
      vertex 11 0 0
    endloop
  endfacet
  facet normal 1 -0 0
    outer loop
      vertex 11 2 8
      vertex 11 -1 9
      vertex 11 0 8
    endloop
  endfacet
  facet normal 1 -0 0
    outer loop
      vertex 11 0 8
      vertex 11 -1 9
      vertex 11 0 0
    endloop
  endfacet
  facet normal 1 0 0
    outer loop
      vertex 11 2 9
      vertex 11 -1 9
      vertex 11 2 8
    endloop
  endfacet
  facet normal 1 0 -0
    outer loop
      vertex 7 1.7 2
      vertex 7 0 0
      vertex 7 8.1 0
    endloop
  endfacet
  facet normal 1 0 -0
    outer loop
      vertex 7 6.1 7
      vertex 7 6.1 2
      vertex 7 8 2
    endloop
  endfacet
  facet normal 1 0 0
    outer loop
      vertex 7 1.7 2
      vertex 7 1.7 7
      vertex 7 0 7
    endloop
  endfacet
  facet normal 1 0 0
    outer loop
      vertex 7 8.1 2
      vertex 7 8 2
      vertex 7 8.1 0
    endloop
  endfacet
  facet normal 1 0 -0
    outer loop
      vertex 7 8 2
      vertex 7 6.1 2
      vertex 7 8.1 0
    endloop
  endfacet
  facet normal 1 0 -0
    outer loop
      vertex 7 0 7
      vertex 7 0 0
      vertex 7 1.7 2
    endloop
  endfacet
  facet normal 1 0 -0
    outer loop
      vertex 7 6.1 2
      vertex 7 1.7 2
      vertex 7 8.1 0
    endloop
  endfacet
  facet normal 1 0 0
    outer loop
      vertex 7 8 2
      vertex 7 8 7
      vertex 7 6.1 7
    endloop
  endfacet
  facet normal 0 -1 0
    outer loop
      vertex 11 8.1 8
      vertex 0 8.1 2
      vertex 7 8.1 2
    endloop
  endfacet
  facet normal 0 -1 0
    outer loop
      vertex 9 8.1 8
      vertex 9 8.1 9
      vertex 0 8.1 2
    endloop
  endfacet
  facet normal 0 -1 0
    outer loop
      vertex 0 8.1 0
      vertex 0 8.1 2
      vertex -2 8.1 9
    endloop
  endfacet
  facet normal -0 -1 -0
    outer loop
      vertex 7 8.1 0
      vertex 11 8.1 0
      vertex 7 8.1 2
    endloop
  endfacet
  facet normal 0 -1 0
    outer loop
      vertex 11 8.1 0
      vertex 11 8.1 8
      vertex 7 8.1 2
    endloop
  endfacet
  facet normal 0 -1 0
    outer loop
      vertex 11 8.1 8
      vertex 9 8.1 8
      vertex 0 8.1 2
    endloop
  endfacet
  facet normal 0 -1 0
    outer loop
      vertex -2 8.1 8
      vertex -4 8.1 8
      vertex 0 8.1 0
    endloop
  endfacet
  facet normal 0 -1 0
    outer loop
      vertex 9 8.1 9
      vertex -2 8.1 9
      vertex 0 8.1 2
    endloop
  endfacet
  facet normal 0 -1 0
    outer loop
      vertex -2 8.1 9
      vertex -2 8.1 8
      vertex 0 8.1 0
    endloop
  endfacet
  facet normal 0 -1 0
    outer loop
      vertex -4 8.1 8
      vertex -4 8.1 0
      vertex 0 8.1 0
    endloop
  endfacet
  facet normal 1 0 -0
    outer loop
      vertex 11 6.1 9
      vertex 11 6.1 8
      vertex 11 8.1 8
    endloop
  endfacet
  facet normal 1 0 0
    outer loop
      vertex 11 9.1 9
      vertex 11 6.1 9
      vertex 11 8.1 8
    endloop
  endfacet
  facet normal 1 0 0
    outer loop
      vertex 11 8.1 0
      vertex 11 9.1 0
      vertex 11 8.1 8
    endloop
  endfacet
  facet normal 1 0 0
    outer loop
      vertex 11 9.1 0
      vertex 11 9.1 9
      vertex 11 8.1 8
    endloop
  endfacet
  facet normal 0 1 0
    outer loop
      vertex -4 9.1 0
      vertex -4 9.1 9
      vertex 11 9.1 0
    endloop
  endfacet
  facet normal 0 1 0
    outer loop
      vertex 11 9.1 0
      vertex -4 9.1 9
      vertex 11 9.1 9
    endloop
  endfacet
  facet normal -1 -0 -0
    outer loop
      vertex -4 6.1 8
      vertex -4 6.1 9
      vertex -4 8.1 8
    endloop
  endfacet
  facet normal -1 0 -0
    outer loop
      vertex -4 8.1 8
      vertex -4 6.1 9
      vertex -4 9.1 9
    endloop
  endfacet
  facet normal -1 -0 0
    outer loop
      vertex -4 8.1 8
      vertex -4 9.1 9
      vertex -4 9.1 0
    endloop
  endfacet
  facet normal -1 0 0
    outer loop
      vertex -4 8.1 8
      vertex -4 9.1 0
      vertex -4 8.1 0
    endloop
  endfacet
  facet normal -1 -0 -0
    outer loop
      vertex 0 0 0
      vertex 0 0 2
      vertex 0 8.1 0
    endloop
  endfacet
  facet normal -1 0 0
    outer loop
      vertex 0 8.1 0
      vertex 0 0 2
      vertex 0 3 2
    endloop
  endfacet
  facet normal -1 0 0
    outer loop
      vertex 0 5 2
      vertex 0 3 2
      vertex 0 3 5
    endloop
  endfacet
  facet normal -1 0 0
    outer loop
      vertex 0 8.1 0
      vertex 0 3 2
      vertex 0 5 2
    endloop
  endfacet
  facet normal -1 0 0
    outer loop
      vertex 0 8.1 2
      vertex 0 8.1 0
      vertex 0 5 2
    endloop
  endfacet
  facet normal -1 0 0
    outer loop
      vertex 0 5 2
      vertex 0 3 5
      vertex 0 5 5
    endloop
  endfacet
  facet normal 0 -0 1
    outer loop
      vertex 0 3 2
      vertex 0 0 2
      vertex 4 0 2
    endloop
  endfacet
  facet normal -0 0 1
    outer loop
      vertex 6.44449 1.7 2
      vertex 0 3 2
      vertex 4 0.288675 2
    endloop
  endfacet
  facet normal -0 0 1
    outer loop
      vertex 4 0.288675 2
      vertex 0 3 2
      vertex 4 0 2
    endloop
  endfacet
  facet normal -0 0 1
    outer loop
      vertex 7 1.7 2
      vertex 0 3 2
      vertex 6.44449 1.7 2
    endloop
  endfacet
  facet normal 0 -0 1
    outer loop
      vertex 3 3 2
      vertex 0 3 2
      vertex 7 1.7 2
    endloop
  endfacet
  facet normal 0 -0 1
    outer loop
      vertex 4.05 7.76506 2
      vertex 4 7.67846 2
      vertex 6.93397 6.1 2
    endloop
  endfacet
  facet normal 0 0 1
    outer loop
      vertex 0 5 2
      vertex 4 7.67846 2
      vertex 4 8 2
    endloop
  endfacet
  facet normal 0 -0 1
    outer loop
      vertex 3 5 2
      vertex 3 3 2
      vertex 7 6.1 2
    endloop
  endfacet
  facet normal 0 0 1
    outer loop
      vertex 7 8.1 2
      vertex 4 8 2
      vertex 7 8 2
    endloop
  endfacet
  facet normal 0 0 1
    outer loop
      vertex 0 8.1 2
      vertex 4 8 2
      vertex 7 8.1 2
    endloop
  endfacet
  facet normal 0 -0 1
    outer loop
      vertex 0 8.1 2
      vertex 0 5 2
      vertex 4 8 2
    endloop
  endfacet
  facet normal 0 -0 1
    outer loop
      vertex 4 7.67846 2
      vertex 3 5 2
      vertex 6.93397 6.1 2
    endloop
  endfacet
  facet normal 0 0 1
    outer loop
      vertex 7 6.1 2
      vertex 3 3 2
      vertex 7 1.7 2
    endloop
  endfacet
  facet normal 0 0 1
    outer loop
      vertex 3 5 2
      vertex 7 6.1 2
      vertex 6.93397 6.1 2
    endloop
  endfacet
  facet normal 0 0 1
    outer loop
      vertex 0 5 2
      vertex 3 5 2
      vertex 4 7.67846 2
    endloop
  endfacet
  facet normal -1 -0 -0
    outer loop
      vertex 4 0 2
      vertex 4 0 7
      vertex 4 0.288675 2
    endloop
  endfacet
  facet normal -1 0 0
    outer loop
      vertex 4 0.288675 2
      vertex 4 0 7
      vertex 4 0.288675 7
    endloop
  endfacet
  facet normal 0 -0 1
    outer loop
      vertex 4 0.288675 7
      vertex 4 0 7
      vertex 7 0 7
    endloop
  endfacet
  facet normal 0 -0 1
    outer loop
      vertex 6.44449 1.7 7
      vertex 4 0.288675 7
      vertex 7 1.7 7
    endloop
  endfacet
  facet normal 0 0 1
    outer loop
      vertex 7 1.7 7
      vertex 4 0.288675 7
      vertex 7 0 7
    endloop
  endfacet
  facet normal -0 -0 -1
    outer loop
      vertex 9 0 8
      vertex 9 2 8
      vertex 11 0 8
    endloop
  endfacet
  facet normal 0 0 -1
    outer loop
      vertex 11 0 8
      vertex 9 2 8
      vertex 11 2 8
    endloop
  endfacet
  facet normal -1 -0 -0
    outer loop
      vertex 9 0 8
      vertex 9 0 9
      vertex 9 2 8
    endloop
  endfacet
  facet normal -1 0 0
    outer loop
      vertex 9 2 8
      vertex 9 0 9
      vertex 9 2 9
    endloop
  endfacet
  facet normal 1 0 -0
    outer loop
      vertex -2 0 9
      vertex -2 0 8
      vertex -2 2 8
    endloop
  endfacet
  facet normal 1 0 0
    outer loop
      vertex -2 2 9
      vertex -2 0 9
      vertex -2 2 8
    endloop
  endfacet
  facet normal 0 1 0
    outer loop
      vertex 9 2 8
      vertex 9 2 9
      vertex 11 2 8
    endloop
  endfacet
  facet normal 0 1 0
    outer loop
      vertex 11 2 8
      vertex 9 2 9
      vertex 11 2 9
    endloop
  endfacet
  facet normal 0 1 0
    outer loop
      vertex 7 1.7 7
      vertex 7 1.7 2
      vertex 6.44449 1.7 7
    endloop
  endfacet
  facet normal 0 1 -0
    outer loop
      vertex 6.44449 1.7 7
      vertex 7 1.7 2
      vertex 6.44449 1.7 2
    endloop
  endfacet
  facet normal 0 -1 0
    outer loop
      vertex 7 6.1 2
      vertex 7 6.1 7
      vertex 6.93397 6.1 7
    endloop
  endfacet
  facet normal -0 -1 -0
    outer loop
      vertex 6.93397 6.1 2
      vertex 7 6.1 2
      vertex 6.93397 6.1 7
    endloop
  endfacet
  facet normal 0 -0 1
    outer loop
      vertex 4 8 7
      vertex 4 7.67846 7
      vertex 4.05 7.76506 7
    endloop
  endfacet
  facet normal 0 0 1
    outer loop
      vertex 6.93397 6.1 7
      vertex 4 8 7
      vertex 4.05 7.76506 7
    endloop
  endfacet
  facet normal 0 0 1
    outer loop
      vertex 6.93397 6.1 7
      vertex 7 6.1 7
      vertex 4 8 7
    endloop
  endfacet
  facet normal 0 0 1
    outer loop
      vertex 7 6.1 7
      vertex 7 8 7
      vertex 4 8 7
    endloop
  endfacet
  facet normal 0 1 0
    outer loop
      vertex 4 8 2
      vertex 4 8 7
      vertex 7 8 2
    endloop
  endfacet
  facet normal 0 1 0
    outer loop
      vertex 7 8 2
      vertex 4 8 7
      vertex 7 8 7
    endloop
  endfacet
  facet normal -0 -0 -1
    outer loop
      vertex -4 6.1 8
      vertex -4 8.1 8
      vertex -2 6.1 8
    endloop
  endfacet
  facet normal 0 0 -1
    outer loop
      vertex -2 6.1 8
      vertex -4 8.1 8
      vertex -2 8.1 8
    endloop
  endfacet
  facet normal 1 0 -0
    outer loop
      vertex -2 6.1 9
      vertex -2 6.1 8
      vertex -2 8.1 8
    endloop
  endfacet
  facet normal 1 0 0
    outer loop
      vertex -2 8.1 9
      vertex -2 6.1 9
      vertex -2 8.1 8
    endloop
  endfacet
  facet normal 0 -0 1
    outer loop
      vertex -4 9.1 9
      vertex -4 6.1 9
      vertex -2 6.1 9
    endloop
  endfacet
  facet normal -0 0 1
    outer loop
      vertex 9 8.1 9
      vertex -4 9.1 9
      vertex -2 8.1 9
    endloop
  endfacet
  facet normal -0 0 1
    outer loop
      vertex -2 8.1 9
      vertex -4 9.1 9
      vertex -2 6.1 9
    endloop
  endfacet
  facet normal 0 0 1
    outer loop
      vertex 11 9.1 9
      vertex -4 9.1 9
      vertex 9 8.1 9
    endloop
  endfacet
  facet normal -0 0 1
    outer loop
      vertex 11 6.1 9
      vertex 9 8.1 9
      vertex 9 6.1 9
    endloop
  endfacet
  facet normal 0 0 1
    outer loop
      vertex 11 9.1 9
      vertex 9 8.1 9
      vertex 11 6.1 9
    endloop
  endfacet
  facet normal -1 -0 -0
    outer loop
      vertex 9 6.1 8
      vertex 9 6.1 9
      vertex 9 8.1 8
    endloop
  endfacet
  facet normal -1 0 0
    outer loop
      vertex 9 8.1 8
      vertex 9 6.1 9
      vertex 9 8.1 9
    endloop
  endfacet
  facet normal -0 -0 -1
    outer loop
      vertex 9 6.1 8
      vertex 9 8.1 8
      vertex 11 6.1 8
    endloop
  endfacet
  facet normal 0 0 -1
    outer loop
      vertex 11 6.1 8
      vertex 9 8.1 8
      vertex 11 8.1 8
    endloop
  endfacet
  facet normal 0 -1 0
    outer loop
      vertex 9 6.1 9
      vertex 9 6.1 8
      vertex 11 6.1 8
    endloop
  endfacet
  facet normal 0 -1 0
    outer loop
      vertex 11 6.1 9
      vertex 9 6.1 9
      vertex 11 6.1 8
    endloop
  endfacet
  facet normal 0 -1 0
    outer loop
      vertex -4 6.1 9
      vertex -4 6.1 8
      vertex -2 6.1 8
    endloop
  endfacet
  facet normal 0 -1 0
    outer loop
      vertex -2 6.1 9
      vertex -4 6.1 9
      vertex -2 6.1 8
    endloop
  endfacet
  facet normal 0 1 0
    outer loop
      vertex 0 5 2
      vertex 0 5 5
      vertex 3 5 2
    endloop
  endfacet
  facet normal 0 1 0
    outer loop
      vertex 3 5 2
      vertex 0 5 5
      vertex 3 5 5
    endloop
  endfacet
  facet normal 0 -0 1
    outer loop
      vertex 0 5 5
      vertex 0 3 5
      vertex 3 3 5
    endloop
  endfacet
  facet normal 0 0 1
    outer loop
      vertex 3 5 5
      vertex 0 5 5
      vertex 3 3 5
    endloop
  endfacet
  facet normal 0 -1 0
    outer loop
      vertex 0 3 5
      vertex 0 3 2
      vertex 3 3 2
    endloop
  endfacet
  facet normal 0 -1 0
    outer loop
      vertex 3 3 5
      vertex 0 3 5
      vertex 3 3 2
    endloop
  endfacet
  facet normal 1 0 -0
    outer loop
      vertex 3 3 5
      vertex 3 3 2
      vertex 3 5 2
    endloop
  endfacet
  facet normal 1 0 0
    outer loop
      vertex 3 5 5
      vertex 3 3 5
      vertex 3 5 2
    endloop
  endfacet
  facet normal -1 -0 -0
    outer loop
      vertex 4 7.67846 2
      vertex 4 7.67846 7
      vertex 4 8 2
    endloop
  endfacet
  facet normal -1 0 0
    outer loop
      vertex 4 8 2
      vertex 4 7.67846 7
      vertex 4 8 7
    endloop
  endfacet
  facet normal 0.866025 -0.5 0
    outer loop
      vertex 4.05 7.76506 2
      vertex 4.05 7.76506 7
      vertex 4 7.67846 7
    endloop
  endfacet
  facet normal 0.866025 -0.5 0
    outer loop
      vertex 4 7.67846 2
      vertex 4.05 7.76506 2
      vertex 4 7.67846 7
    endloop
  endfacet
  facet normal -0.5 -0.866025 -0
    outer loop
      vertex 6.93397 6.1 2
      vertex 6.93397 6.1 7
      vertex 4.05 7.76506 7
    endloop
  endfacet
  facet normal -0.5 -0.866025 -0
    outer loop
      vertex 4.05 7.76506 2
      vertex 6.93397 6.1 2
      vertex 4.05 7.76506 7
    endloop
  endfacet
  facet normal -0.5 0.866025 0
    outer loop
      vertex 6.44449 1.7 7
      vertex 6.44449 1.7 2
      vertex 4 0.288675 7
    endloop
  endfacet
  facet normal -0.5 0.866025 0
    outer loop
      vertex 4 0.288675 7
      vertex 6.44449 1.7 2
      vertex 4 0.288675 2
    endloop
  endfacet
endsolid OpenSCAD_Model
